<svg xmlns="http://www.w3.org/2000/svg" fill="#FFFFFF" width="48" height="48" viewBox="0 0 48 48">
<path d="M18.4,39 L11,39 L11.0000003,30 L9.00000034,30 L8.99999997,41 L10,41 L18.4,41 L16,43.5714286 L17.3333333,45 L22,40 L17.3333333,35 L16,36.4285714 L18.4,39 Z"/>
<path d="M35.4,12 L28,12 L28.0000003,3.00000007 L26.0000003,3 L26,14 L27,14 L35.4,14 L33,16.5714286 L34.3333333,18 L39,13 L34.3333333,8.00000003 L33,9.42857146 L35.4,12 Z" transform="rotate(180 32.5 10.5)"/>
<path d="M2 2L2 24 20 24 20 2 2 2zM22 0L22 26-.92779167e-14 26-.92779167e-14-.32907052e-15 22 0zM28 24L28 46 46 46 46 24 28 24zM48 22L48 48 26 48 26 22 48 22z"/>
</svg>
