<svg xmlns="http://www.w3.org/2000/svg" width="48" height="48" viewBox="0 0 48 48">
  <g id="icons" fill="none" fill-rule="evenodd">
    <g id="edit" fill="#FFFFFF" fill-rule="nonzero">
      <path id="Combined-Shape" d="M40.1887489,11 L33,17.8293114 L33,21 L42,21 L42,23 L33,23 L33,27 L42,27 L42,29 L33,29 L33,33 L42,33 L42,35 L33,35 L33,39 L42,39 L42,41 L31.5,41 L17,41 L17,46 L46,46 L46,11 L40.1887489,11 Z M42.294012,9 L48,9 L48,48 L15,48 L15,41 L0,41 L0,0 L33,0 L33,7.27068858 L40.0178985,0.603684971 L45.4325769,6.01836335 L42.294012,9 Z M31,9.17068858 L31,2 L6,2 L6,6 L2,6 L2,39 L31,39 L31,19.7293114 L24.3992752,26 L19,26 L19,20.5706886 L31,9.17068858 Z M12,12 L12,24 L15,24 L15,26 L7,26 L7,24 L10,24 L10,12 L7,12 L7,10 L15,10 L15,12 L12,12 Z M21,24 L23.6007248,24 L42.5674231,5.98163665 L39.9821015,3.39631503 L21,21.4293114 L21,24 Z"/>
    </g>
  </g>
</svg>
