<svg width="48px" height="48px" viewBox="0 0 48 48" version="1.1" xmlns="http://www.w3.org/2000/svg" xmlns:xlink="http://www.w3.org/1999/xlink"><g id="Page-1" stroke="none" stroke-width="1" fill="none" fill-rule="evenodd"><g id="merge" stroke="#FFFFFF" stroke-width="2.5"><path d="M1,1 L18,1 L18,21 L1,21 L1,1 Z" id="Path-2-Copy-8" transform="translate(9.500000, 11.000000) scale(-1, -1) translate(-9.500000, -11.000000) "/><path d="M16,27 L33,27 L33,47 L16,47 L16,27 Z" id="Path-2-Copy-10" transform="translate(24.500000, 37.000000) scale(-1, -1) translate(-24.500000, -37.000000) "/><path d="M30,1 L47,1 L47,21 L30,21 L30,1 Z" id="Path-2-Copy-9" transform="translate(38.500000, 11.000000) scale(-1, -1) translate(-38.500000, -11.000000) "/><path d="M39,26 L39,34 L47,34" id="Path-56-Copy" transform="translate(43.000000, 30.000000) scale(-1, 1) translate(-43.000000, -30.000000) "/><path d="M39,36 L39,32 L43,32" id="Path-66-Copy-4" stroke-linecap="square" transform="translate(41.000000, 34.000000) rotate(-45.000000) translate(-41.000000, -34.000000) "/><path d="M1,26 L1,34 L9,34" id="Path-56-Copy"/><path d="M5,36 L5,32 L9,32" id="Path-66-Copy-4" stroke-linecap="square" transform="translate(7.000000, 34.000000) scale(-1, 1) rotate(-45.000000) translate(-7.000000, -34.000000) "/></g></g></svg>