<svg width="48px" height="48px" viewBox="0 0 48 48" version="1.1" xmlns="http://www.w3.org/2000/svg" xmlns:xlink="http://www.w3.org/1999/xlink"><g id="Page-1" stroke="none" stroke-width="1" fill="none" fill-rule="evenodd"><g id="rotate" stroke="#FFFFFF" stroke-width="2.5"><g id="Oval-8-+-Path-66-Copy-3" transform="translate(34.992404, 11.413176) rotate(-10.000000) translate(-34.992404, -11.413176) translate(23.992404, -0.086824)"><path d="M21,23 C21,11.954305 12.045695,3 1,3" id="Oval-8"/><path d="M1,5 L1,1 L5,1" id="Path-66-Copy-3" stroke-linecap="square" transform="translate(3.000000, 3.000000) rotate(-45.000000) translate(-3.000000, -3.000000) "/></g><g id="Oval-8-Copy-+-Path-66-Copy-4" transform="translate(13.507596, 36.586824) rotate(-10.000000) translate(-13.507596, -36.586824) translate(3.007596, 25.086824)"><path d="M20,20 C20,8.954305 11.045695,0 3.55271368e-14,0" id="Oval-8-Copy" transform="translate(10.000000, 10.000000) scale(-1, -1) translate(-10.000000, -10.000000) "/><path d="M16.0151922,21.8263518 L16.0151922,17.8263518 L20.0151922,17.8263518" id="Path-66-Copy-4" stroke-linecap="square" transform="translate(18.015192, 19.826352) scale(-1, 1) rotate(-45.000000) translate(-18.015192, -19.826352) "/></g><path d="M16,14 L33,14 L33,34 L16,34 L16,14 Z" id="Path-2-Copy-10" transform="translate(24.500000, 24.000000) rotate(-9.000000) translate(-24.500000, -24.000000) "/></g></g></svg>