<svg xmlns="http://www.w3.org/2000/svg" width="48" height="48" viewBox="0 0 48 48">
  <g id="icons" fill="none" fill-rule="evenodd">
    <g id="sign" fill="#FFFFFF" fill-rule="nonzero">
      <path id="Combined-Shape" d="M40.1887489,11 L33,17.8293114 L33,21 L42,21 L42,23 L33,23 L33,27 L42,27 L42,29 L33,29 L33,33 L42,33 L42,35 L33,35 L33,39 L42,39 L42,41 L31.5,41 L17,41 L17,46 L46,46 L46,11 L40.1887489,11 Z M42.294012,9 L48,9 L48,48 L15,48 L15,41 L0,41 L0,0 L33,0 L33,7.27068858 L40.0178985,0.603684971 L45.4325769,6.01836335 L42.294012,9 Z M31,9.17068858 L31,2 L2,2 L2,39 L31,39 L31,19.7293114 L24.3992752,26 L19,26 L19,20.5706886 L31,9.17068858 Z M12.0897238,31.1654423 C12.0850729,30.9943383 12.090017,30.8247491 12.1042014,30.6550159 C10.3067019,31.9033536 7.972311,32.6373896 5,32.6373896 L5,30.6442744 C8.34544897,30.6442744 10.630956,29.6094981 12.1943957,27.95822 C12.4432814,27.6953512 12.6589388,27.430916 12.8560356,27.1570062 C12.9301416,27.0540195 12.9983523,26.9543736 13.0712763,26.8438665 C13.1001927,26.8000473 13.2086896,26.6331353 13.2338076,26.5954658 C13.3434894,26.4309761 13.394581,26.3630793 13.5213675,26.2589378 C13.8738286,25.9694289 14.3915673,25.8454453 14.8710795,26.30282 C15.1108321,26.6169697 15.1108321,26.6169697 15.1585617,26.8054618 C15.1839121,26.9436054 15.1839121,26.9436054 15.1874688,27.0268446 C15.192601,27.1919167 15.1983542,27.1524318 15.0921664,27.8148132 C15.0564054,28.0378838 14.9823742,28.2466652 14.8441489,28.57153 C14.8313814,28.6015369 14.5954175,29.1408642 14.5243551,29.3127911 C14.2226551,30.0427172 14.0753457,30.6094897 14.0889904,31.1114725 C14.1059853,31.7367083 14.3807719,32.2251736 15.0703299,32.6604629 C15.3229609,32.8199383 15.2846881,32.7963859 15.3760391,32.844603 C15.6720175,33.000827 15.8924457,33.035784 16.0508744,32.9607076 C16.0678168,32.952679 16.0851776,32.9431592 16.1030855,32.9319324 C16.411463,32.7386062 16.9361272,32.405251 17.6282967,31.963371 C18.0258575,31.7095563 18.4510713,31.4375486 18.8757366,31.1655321 C19.1305414,31.0023186 19.328564,30.8753565 19.412025,30.8225512 C19.4677333,30.7839602 19.523901,30.7473183 19.580578,30.7126103 C20.7490348,29.9970667 20.752884,29.9975041 24.0594944,30.7427975 C25.3984381,31.0445887 26.5632095,31.1968262 28,31.1968262 L28,33.1899415 C26.4000043,33.1899415 25.0920658,33.0189917 23.6182914,32.6868104 C21.072275,32.1129511 21.1074255,32.1169451 20.6276778,32.4107346 C20.6032798,32.4256755 20.5785935,32.44178 20.52413,32.4787471 C20.4107128,32.5515161 20.2123925,32.6786691 19.9571313,32.842175 C19.5316865,33.1146907 19.1056647,33.3872153 18.6935016,33.6503523 C18.0104513,34.0864105 17.4825107,34.4218473 17.1680454,34.6189901 C17.0839117,34.6717347 16.9977523,34.7189804 16.9097508,34.7606825 C16.0689681,35.1591133 15.2384752,35.027408 14.439941,34.6059239 C14.2801114,34.5215622 14.3177433,34.5447203 14.0000985,34.3442043 C12.7442357,33.5514304 12.1246408,32.4500278 12.0897238,31.1654423 Z M21,24 L23.6007248,24 L42.5674231,5.98163665 L39.9821015,3.39631503 L21,21.4293114 L21,24 Z"/>
    </g>
  </g>
</svg>
