<svg width="48px" height="48px" viewBox="0 0 48 48" version="1.1" xmlns="http://www.w3.org/2000/svg" xmlns:xlink="http://www.w3.org/1999/xlink"><g id="Page-1" stroke="none" stroke-width="1" fill="none" fill-rule="evenodd"><g id="split" stroke="#FFFFFF" stroke-width="2.5"><path d="M35.5,13 L35.5,21 L43.5,21" id="Path-56-Copy" transform="translate(39.500000, 17.000000) scale(-1, -1) translate(-39.500000, -17.000000) "/><path d="M41.3284271,21 L41.3284271,17 L45.3284271,17" id="Path-66-Copy-4" stroke-linecap="square" transform="translate(43.328427, 19.000000) scale(-1, 1) rotate(-135.000000) translate(-43.328427, -19.000000) "/><path d="M4.5,13 L4.5,21 L12.5,21" id="Path-56-Copy" transform="translate(8.500000, 17.000000) scale(1, -1) translate(-8.500000, -17.000000) "/><path d="M2.32842712,21 L2.32842712,17 L6.32842712,17" id="Path-66-Copy-4" stroke-linecap="square" transform="translate(4.328427, 19.000000) scale(-1, 1) rotate(-135.000000) translate(-4.328427, -19.000000) "/><path d="M1,27 L18,27 L18,47 L1,47 L1,27 Z" id="Path-2-Copy-8" transform="translate(9.500000, 37.000000) scale(-1, -1) translate(-9.500000, -37.000000) "/><path d="M15,1 L33,1 L33,22 L15,22 L15,1 Z" id="Path-2-Copy-10" transform="translate(24.000000, 11.500000) scale(-1, -1) translate(-24.000000, -11.500000) "/><path d="M30,27 L47,27 L47,47 L30,47 L30,27 Z" id="Path-2-Copy-9" transform="translate(38.500000, 37.000000) scale(-1, -1) translate(-38.500000, -37.000000) "/></g></g></svg>